<svg xmlns="http://www.w3.org/2000/svg" xmlns:xlink="http://www.w3.org/1999/xlink"><symbol viewBox="0 0 352 512" id="close"><path fill="currentColor" d="M242.72 256l100.07-100.07c12.28-12.28 12.28-32.19 0-44.48l-22.24-22.24c-12.28-12.28-32.19-12.28-44.48 0L176 189.28 75.93 89.21c-12.28-12.28-32.19-12.28-44.48 0L9.21 111.45c-12.28 12.28-12.28 32.19 0 44.48L109.28 256 9.21 356.07c-12.28 12.28-12.28 32.19 0 44.48l22.24 22.24c12.28 12.28 32.2 12.28 44.48 0L176 322.72l100.07 100.07c12.28 12.28 32.2 12.28 44.48 0l22.24-22.24c12.28-12.28 12.28-32.19 0-44.48L242.72 256z"/></symbol><symbol viewBox="0 0 30 30" id="day-night"><path fill="currentColor" d="M9.984.986A1 1 0 009 2v1a1 1 0 102 0V2A1 1 0 009.984.986zM4.332 3.332a1 1 0 00-.695 1.719l.707.707a1 1 0 101.414-1.414l-.707-.707a1 1 0 00-.719-.305zm11.305.002a1 1 0 00-.688.303l-.707.707a1 1 0 101.414 1.414l.707-.707a1 1 0 00-.726-1.717zm9.343.656a1 1 0 00-.687.303l-20 20a1 1 0 101.414 1.414l20-20a1 1 0 00-.727-1.717zM10 6a4 4 0 000 8 4 4 0 000-8zM2 9a1 1 0 100 2h1a1 1 0 100-2H2zm22 3a1 1 0 000 2 1 1 0 000-2zM5.031 13.94a1 1 0 00-.687.302l-.707.707a1 1 0 101.414 1.414l.707-.707a1 1 0 00-.727-1.717zM26 16a1 1 0 000 2 1 1 0 000-2zm-5.83.17A5.497 5.497 0 0021.5 27a5.497 5.497 0 005.33-4.17c-.427.106-.87.17-1.33.17a5.5 5.5 0 01-5.5-5.5c0-.46.064-.903.17-1.33z"/></symbol><symbol viewBox="0 0 24 24" id="day-night-alt"><path fill="currentColor" d="M12.938 16.457a3.614 3.614 0 01-2.573-1.056.35.35 0 01-.002-.494l4.676-4.669a.35.35 0 01.493.001c1.41 1.407 1.412 3.721.003 5.159a3.694 3.694 0 01-2.597 1.059zm-1.817-1.32c1.119.876 2.877.783 3.919-.234 1.053-1.074 1.13-2.762.229-3.908l-4.148 4.142z"/><path fill="currentColor" d="M10.612 15.503a.348.348 0 01-.25-.105c-1.409-1.438-1.407-3.752.003-5.159a3.576 3.576 0 012.573-1.078 3.65 3.65 0 012.594 1.078.351.351 0 01-.001.497l-4.669 4.663a.352.352 0 01-.25.104zm2.326-5.641a2.88 2.88 0 00-2.076.871c-1.058 1.055-1.135 2.739-.234 3.907l4.145-4.14a2.942 2.942 0 00-1.835-.638zm-.004-1.71a.35.35 0 01-.35-.35V6.501a.35.35 0 01.7 0v1.301a.35.35 0 01-.35.35zM7.78 13.296H6.478a.35.35 0 010-.7H7.78a.35.35 0 010 .7zM9.31 9.65a.347.347 0 01-.243-.099l-.935-.904a.35.35 0 11.487-.503l.935.904a.35.35 0 01-.244.602zm-.935 8.199a.35.35 0 01-.243-.602l.935-.904a.35.35 0 01.487.503l-.936.904a.347.347 0 01-.243.099z"/><path fill="currentColor" d="M9.196 17.058a.35.35 0 01-.248-.598l8.326-8.313a.35.35 0 11.495.495l-8.326 8.313a.344.344 0 01-.247.103z"/></symbol><symbol viewBox="0 0 496 512" id="github"><path fill="currentColor" d="M165.9 397.4c0 2-2.3 3.6-5.2 3.6-3.3.3-5.6-1.3-5.6-3.6 0-2 2.3-3.6 5.2-3.6 3-.3 5.6 1.3 5.6 3.6zm-31.1-4.5c-.7 2 1.3 4.3 4.3 4.9 2.6 1 5.6 0 6.2-2s-1.3-4.3-4.3-5.2c-2.6-.7-5.5.3-6.2 2.3zm44.2-1.7c-2.9.7-4.9 2.6-4.6 4.9.3 2 2.9 3.3 5.9 2.6 2.9-.7 4.9-2.6 4.6-4.6-.3-1.9-3-3.2-5.9-2.9zM244.8 8C106.1 8 0 113.3 0 252c0 110.9 69.8 205.8 169.5 239.2 12.8 2.3 17.3-5.6 17.3-12.1 0-6.2-.3-40.4-.3-61.4 0 0-70 15-84.7-29.8 0 0-11.4-29.1-27.8-36.6 0 0-22.9-15.7 1.6-15.4 0 0 24.9 2 38.6 25.8 21.9 38.6 58.6 27.5 72.9 20.9 2.3-16 8.8-27.1 16-33.7-55.9-6.2-112.3-14.3-112.3-110.5 0-27.5 7.6-41.3 23.6-58.9-2.6-6.5-11.1-33.3 2.6-67.9 20.9-6.5 69 27 69 27 20-5.6 41.5-8.5 62.8-8.5s42.8 2.9 62.8 8.5c0 0 48.1-33.6 69-27 13.7 34.7 5.2 61.4 2.6 67.9 16 17.7 25.8 31.5 25.8 58.9 0 96.5-58.9 104.2-114.8 110.5 9.2 7.9 17 22.9 17 46.4 0 33.7-.3 75.4-.3 83.6 0 6.5 4.6 14.4 17.3 12.1C428.2 457.8 496 362.9 496 252 496 113.3 383.5 8 244.8 8zM97.2 352.9c-1.3 1-1 3.3.7 5.2 1.6 1.6 3.9 2.3 5.2 1 1.3-1 1-3.3-.7-5.2-1.6-1.6-3.9-2.3-5.2-1zm-10.8-8.1c-.7 1.3.3 2.9 2.3 3.9 1.6 1 3.6.7 4.3-.7.7-1.3-.3-2.9-2.3-3.9-2-.6-3.6-.3-4.3.7zm32.4 35.6c-1.6 1.3-1 4.3 1.3 6.2 2.3 2.3 5.2 2.6 6.5 1 1.3-1.3.7-4.3-1.3-6.2-2.2-2.3-5.2-2.6-6.5-1zm-11.4-14.7c-1.6 1-1.6 3.6 0 5.9 1.6 2.3 4.3 3.3 5.6 2.3 1.6-1.3 1.6-3.9 0-6.2-1.4-2.3-4-3.3-5.6-2z"/></symbol><symbol viewBox="0 0 448 512" id="plus"><path fill="currentColor" d="M416 208H272V64c0-17.67-14.33-32-32-32h-32c-17.67 0-32 14.33-32 32v144H32c-17.67 0-32 14.33-32 32v32c0 17.67 14.33 32 32 32h144v144c0 17.67 14.33 32 32 32h32c17.67 0 32-14.33 32-32V304h144c17.67 0 32-14.33 32-32v-32c0-17.67-14.33-32-32-32z"/></symbol><symbol viewBox="0 0 512 512" id="refresh"><path fill="currentColor" d="M370.72 133.28C339.458 104.008 298.888 87.962 255.848 88c-77.458.068-144.328 53.178-162.791 126.85-1.344 5.363-6.122 9.15-11.651 9.15H24.103c-7.498 0-13.194-6.807-11.807-14.176C33.933 94.924 134.813 8 256 8c66.448 0 126.791 26.136 171.315 68.685L463.03 40.97C478.149 25.851 504 36.559 504 57.941V192c0 13.255-10.745 24-24 24H345.941c-21.382 0-32.09-25.851-16.971-40.971l41.75-41.749zM32 296h134.059c21.382 0 32.09 25.851 16.971 40.971l-41.75 41.75c31.262 29.273 71.835 45.319 114.876 45.28 77.418-.07 144.315-53.144 162.787-126.849 1.344-5.363 6.122-9.15 11.651-9.15h57.304c7.498 0 13.194 6.807 11.807 14.176C478.067 417.076 377.187 504 256 504c-66.448 0-126.791-26.136-171.315-68.685L48.97 471.03C33.851 486.149 8 475.441 8 454.059V320c0-13.255 10.745-24 24-24z"/></symbol></svg>