<svg xmlns="http://www.w3.org/2000/svg" xmlns:xlink="http://www.w3.org/1999/xlink"><symbol viewBox="-30 -30 362.4 362.4" id="01d"><path fill="currentColor" d="M204.8 97.6C191.2 84 172 75.2 151.2 75.2s-40 8.4-53.6 22.4c-13.6 13.6-22.4 32.8-22.4 53.6s8.8 40 22.4 53.6c13.6 13.6 32.8 22.4 53.6 22.4s40-8.4 53.6-22.4c13.6-13.6 22.4-32.8 22.4-53.6s-8.4-40-22.4-53.6zm-14.4 92.8c-10 10-24 16-39.2 16s-29.2-6-39.2-16-16-24-16-39.2 6-29.2 16-39.2 24-16 39.2-16 29.2 6 39.2 16 16 24 16 39.2-6 29.2-16 39.2zM292 140.8h-30.8c-5.6 0-10.4 4.8-10.4 10.4 0 5.6 4.8 10.4 10.4 10.4H292c5.6 0 10.4-4.8 10.4-10.4 0-5.6-4.8-10.4-10.4-10.4zM151.2 250.8c-5.6 0-10.4 4.8-10.4 10.4V292c0 5.6 4.8 10.4 10.4 10.4 5.6 0 10.4-4.8 10.4-10.4v-30.8c0-5.6-4.8-10.4-10.4-10.4zM258 243.6l-22-22c-3.6-4-10.4-4-14.4 0s-4 10.4 0 14.4l22 22c4 4 10.4 4 14.4 0s4-10.4 0-14.4zM151.2 0c-5.6 0-10.4 4.8-10.4 10.4v30.8c0 5.6 4.8 10.4 10.4 10.4 5.6 0 10.4-4.8 10.4-10.4V10.4c0-5.6-4.8-10.4-10.4-10.4zM258.4 44.4c-4-4-10.4-4-14.4 0l-22 22c-4 4-4 10.4 0 14.4 3.6 4 10.4 4 14.4 0l22-22c4-4 4-10.4 0-14.4zM41.2 140.8H10.4c-5.6 0-10.4 4.8-10.4 10.4s4.4 10.4 10.4 10.4h30.8c5.6 0 10.4-4.8 10.4-10.4 0-5.6-4.8-10.4-10.4-10.4zM80.4 221.6c-3.6-4-10.4-4-14.4 0l-22 22c-4 4-4 10.4 0 14.4s10.4 4 14.4 0l22-22c4-4 4-10.4 0-14.4zM80.4 66.4l-22-22c-4-4-10.4-4-14.4 0s-4 10.4 0 14.4l22 22c4 4 10.4 4 14.4 0s4-10.4 0-14.4z"/></symbol><symbol viewBox="-100 -100 614 657" id="01n"><path fill="currentColor" d="M379.17 326.219c-89.916 17.124-172.937-51.618-172.937-142.936 0-52.546 28.16-100.673 73.676-126.575 23.046-13.116 17.25-48.055-8.936-52.892A230.3 230.3 0 00229.259 0C103.155 0 .845 102.203.845 228.414c0 126.104 102.204 228.414 228.414 228.414 70.425 0 134.799-32.053 177.422-84.57 16.815-20.718-1.522-50.99-27.51-46.04zM229.26 428.276c-110.381 0-199.862-89.481-199.862-199.862S118.878 28.552 229.26 28.552c12.477 0 24.684 1.154 36.528 3.341-52.617 29.944-88.106 86.52-88.106 151.39 0 109.394 99.586 191.407 206.83 170.982-36.643 45.15-92.573 74.01-155.252 74.01z"/></symbol><symbol viewBox="0 0 640 512" id="02d"><path fill="currentColor" d="M640 258.3c0-51.6-40.2-93.5-89.6-93.5h-.5c-16.6-40.7-55.3-69.2-99.4-69.2-46.4 0-86.2 30.1-101.5 74.2-25.3 8.8-45.2 29.1-54.7 54.9-48.3 5-86.3 45.5-86.3 95.1 0 1.8.1 3.7.2 5.6-38 13.2-64.2 49.2-64.2 90.5 0 53 43.1 96.1 96 96.1h240c52.9 0 96-43.1 96-96.1 0-24.7-9.4-47.1-24.8-64.1 49-.5 88.8-42.2 88.8-93.5zM480 480H240c-35.3 0-64-28.7-64-64.1 0-31 22.2-57.5 52.8-62.9l16.5-2.9-3.6-16.3c-1.1-5-1.7-9.6-1.7-13.9 0-35.3 28.7-64.1 64-64.1 24.6 0 47.2 14.5 57.8 37l8.6 18.4 15.8-12.7c8.8-7 19.1-10.7 29.8-10.7 26.5 0 48 21.5 48 48v16h16c35.3 0 64 28.7 64 64.1 0 35.4-28.7 64.1-64 64.1zm70.4-160.2h-56.1c-7.5-36.5-39.7-64.1-78.3-64.1-12 0-23.7 2.7-34.4 7.9-13-18-32-30.8-53.2-36.5 9.6-17.3 26.7-29.1 46.7-30.1 5.6-39.3 37-69.4 75.3-69.4 40.3 0 72.9 33.3 75.9 75.5 7.4-3.7 15.3-6.3 24-6.3 31.8 0 57.6 27.5 57.6 61.5.1 34-25.7 61.5-57.5 61.5zm-384.9-7.7c-2.1-1-4.3-1.7-6.6-1.7-1 0-2.1.1-3.1.3l-63.2 12.5 12.5-63.2c1.2-6.3-1.4-12.8-6.8-16.5l-53.5-35.8 53.5-35.8c5.4-3.6 8-10.1 6.8-16.5L92.6 92.2l63.2 12.5c6.5 1.3 12.8-1.5 16.4-6.8L208 44.4 243.8 98c3.6 5.3 9.9 8.1 16.4 6.8l63.2-12.5-12.1 61.2c4.2-2.8 8.4-5.5 13-7.8 7.3-15.7 17.5-29.4 29.3-41.2l5.8-29.5c1-5.2-.6-10.6-4.4-14.4-3.8-3.8-9-5.5-14.4-4.4l-76.2 15.1-43.1-64.6c-6-8.9-20.6-8.9-26.6 0l-43.2 64.6-76.2-15.2c-5.3-1.1-10.6.7-14.4 4.4-3.8 3.8-5.4 9.2-4.4 14.4l15.1 76.3-64.5 43.2c-4.4 3-7.1 8-7.1 13.3C0 213 2.7 218 7.1 221l64.5 43.2-15.1 76.2c-1 5.3.6 10.7 4.4 14.4 3.8 3.7 9.2 5.4 14.4 4.4l56.3-11.1c8.8-14 20.3-26.3 33.9-36zM208 149.8c28.8 0 52.5 21.2 56.9 48.8 2.4-.8 4.8-1.8 7.3-2.4 5-9 11.2-17.1 18-24.5-13.9-31.7-45.5-53.9-82.2-53.9-49.5 0-89.8 40.3-89.8 89.9 0 39.5 25.7 72.7 61.1 84.8 2.3-10.6 5.9-20.6 10.6-30.1-23-7.6-39.8-29.1-39.8-54.7.1-31.9 26-57.9 57.9-57.9z"/></symbol><symbol viewBox="0 0 640 512" id="02n"><path fill="currentColor" d="M462.6 321.1c-7-37-39.6-65.1-78.6-65.1 0-52.9-43.1-96-96-96h-5.5C269.2 122.2 233 96 192 96s-77.2 26.2-90.5 64H96c-52.9 0-96 43.1-96 96s43.1 96 96 96h40.8c-15.4 17.1-24.8 39.5-24.8 64 0 52.9 43.1 96 96 96h240c52.9 0 96-43.1 96-96 0-48-35.4-87.8-81.4-94.9zM96 320c-35.3 0-64-28.7-64-64s28.7-64 64-64h30.7l2.6-12.8c6-29.7 32.4-51.2 62.7-51.2 30.3 0 56.7 21.5 62.7 51.2l2.6 12.8H288c35.3 0 64 28.7 64 64 0 2.6-.7 5-1 7.4-.4.2-.9.3-1.4.5-17.8-24.7-46.7-39.9-77.6-39.9-52.9 0-96 43.1-96 96H96zm352 160H208c-35.3 0-64-28.7-64-64 0-31 22.2-57.4 52.8-62.8l16.5-2.9-3.6-16.3c-1.1-5-1.7-9.6-1.7-13.9 0-35.3 28.7-64 64-64 24.6 0 47.2 14.5 57.7 37l8.6 18.4 15.8-12.7c8.8-7 19.1-10.7 29.8-10.7 26.5 0 48 21.5 48 48v16h16c35.3 0 64 28.7 64 64S483.3 480 448 480zm189.8-230.6c-3.8-8.1-12-13.3-20.9-13.3h-1.5l-2.9.4c-6.6 1.2-13.2 1.9-19.8 1.9-57.2 0-103.7-46.2-103.7-103.1 0-37 20.1-71.3 52.6-89.6 8.6-4.8 13.1-14.2 11.4-23.9-1.6-9.7-9-17.1-18.7-18.9C524.2.9 513.8 0 503.5 0c-83 0-151.8 59.8-166 138.2 10.9 4.6 21 10.7 30.2 18.1C373.7 86.8 431.9 32 503.5 32h1.9C475 57.4 457 95.2 457 135.3c0 74.5 60.9 135.1 135.7 135.1h1c-23.5 20.5-53.5 32-85.1 33.2 13.1 7.2 24.7 16.6 34.5 27.7 35.7-8.5 67.9-28.4 91.6-57.4 5.8-7 6.9-16.4 3.1-24.5z"/></symbol><symbol viewBox="0 0 640 512" id="03d"><path fill="currentColor" d="M543.7 304.3C539.8 259.4 502 224 456 224c-7.1 0-14 1.1-20.7 2.7 7.9-15.3 12.7-32.4 12.7-50.7 0-61.8-50.2-112-112-112-10.5 0-20.9 1.5-31 4.5C283 27 239.4 0 192 0 130.2 0 78.2 43.9 66.9 103.8c-39.4 11.8-66.9 48-66.9 90 0 52 42.3 94.2 94.2 94.2h100.2c-1.6 7.8-2.4 15.8-2.4 24v.4c-38.3 16-64 53.5-64 95.6 0 57.3 46.7 104 104 104h304c57.3 0 104-46.7 104-104 0-54.8-42.6-99.8-96.3-103.7zM94.2 256C59.9 256 32 228.1 32 193.8c0-30.3 21.8-56 51.8-61.1l12-2 1.2-12.1c5-49.4 45.8-86.6 95-86.6 39.5 0 75.5 25 89.6 62.3l6 16 15.5-7c10.6-4.8 21.7-7.3 32.9-7.3 44.1 0 80 35.9 80 80 0 19.9-7.4 38.1-19.7 52.2-22.2-22.5-52-36.2-84.3-36.2-45.8 0-85.3 26.1-105.5 64H94.2zM536 480H232c-39.7 0-72-32.3-72-72 0-32.3 21.9-60.7 53.3-69.2l13.3-3.6-2-17.2c-.3-2-.6-4-.6-6 0-48.5 39.5-88 88-88 32.2 0 61.8 17.9 77.2 46.8l10.6 19.8 15.2-16.5c10.8-11.7 25.4-18.1 41-18.1 30.9 0 56 25.1 56 56 0 1.6-.3 3.1-.8 6.9l-2.5 20 23.5-2.4c1.2-.2 2.5-.4 3.8-.4 39.7 0 72 32.3 72 72S575.7 480 536 480z"/></symbol><symbol viewBox="0 0 640 512" id="03n"><path fill="currentColor" d="M543.7 304.3C539.8 259.4 502 224 456 224c-7.1 0-14 1.1-20.7 2.7 7.9-15.3 12.7-32.4 12.7-50.7 0-61.8-50.2-112-112-112-10.5 0-20.9 1.5-31 4.5C283 27 239.4 0 192 0 130.2 0 78.2 43.9 66.9 103.8c-39.4 11.8-66.9 48-66.9 90 0 52 42.3 94.2 94.2 94.2h100.2c-1.6 7.8-2.4 15.8-2.4 24v.4c-38.3 16-64 53.5-64 95.6 0 57.3 46.7 104 104 104h304c57.3 0 104-46.7 104-104 0-54.8-42.6-99.8-96.3-103.7zM94.2 256C59.9 256 32 228.1 32 193.8c0-30.3 21.8-56 51.8-61.1l12-2 1.2-12.1c5-49.4 45.8-86.6 95-86.6 39.5 0 75.5 25 89.6 62.3l6 16 15.5-7c10.6-4.8 21.7-7.3 32.9-7.3 44.1 0 80 35.9 80 80 0 19.9-7.4 38.1-19.7 52.2-22.2-22.5-52-36.2-84.3-36.2-45.8 0-85.3 26.1-105.5 64H94.2zM536 480H232c-39.7 0-72-32.3-72-72 0-32.3 21.9-60.7 53.3-69.2l13.3-3.6-2-17.2c-.3-2-.6-4-.6-6 0-48.5 39.5-88 88-88 32.2 0 61.8 17.9 77.2 46.8l10.6 19.8 15.2-16.5c10.8-11.7 25.4-18.1 41-18.1 30.9 0 56 25.1 56 56 0 1.6-.3 3.1-.8 6.9l-2.5 20 23.5-2.4c1.2-.2 2.5-.4 3.8-.4 39.7 0 72 32.3 72 72S575.7 480 536 480z"/></symbol><symbol viewBox="0 0 640 512" id="04d"><path fill="currentColor" d="M543.7 304.3C539.8 259.4 502 224 456 224c-7.1 0-14 1.1-20.7 2.7 7.9-15.3 12.7-32.4 12.7-50.7 0-61.8-50.2-112-112-112-10.5 0-20.9 1.5-31 4.5C283 27 239.4 0 192 0 130.2 0 78.2 43.9 66.9 103.8c-39.4 11.8-66.9 48-66.9 90 0 52 42.3 94.2 94.2 94.2h100.2c-1.6 7.8-2.4 15.8-2.4 24v.4c-38.3 16-64 53.5-64 95.6 0 57.3 46.7 104 104 104h304c57.3 0 104-46.7 104-104 0-54.8-42.6-99.8-96.3-103.7zM94.2 256C59.9 256 32 228.1 32 193.8c0-30.3 21.8-56 51.8-61.1l12-2 1.2-12.1c5-49.4 45.8-86.6 95-86.6 39.5 0 75.5 25 89.6 62.3l6 16 15.5-7c10.6-4.8 21.7-7.3 32.9-7.3 44.1 0 80 35.9 80 80 0 19.9-7.4 38.1-19.7 52.2-22.2-22.5-52-36.2-84.3-36.2-45.8 0-85.3 26.1-105.5 64H94.2zM536 480H232c-39.7 0-72-32.3-72-72 0-32.3 21.9-60.7 53.3-69.2l13.3-3.6-2-17.2c-.3-2-.6-4-.6-6 0-48.5 39.5-88 88-88 32.2 0 61.8 17.9 77.2 46.8l10.6 19.8 15.2-16.5c10.8-11.7 25.4-18.1 41-18.1 30.9 0 56 25.1 56 56 0 1.6-.3 3.1-.8 6.9l-2.5 20 23.5-2.4c1.2-.2 2.5-.4 3.8-.4 39.7 0 72 32.3 72 72S575.7 480 536 480z"/></symbol><symbol viewBox="0 0 640 512" id="04n"><path fill="currentColor" d="M543.7 304.3C539.8 259.4 502 224 456 224c-7.1 0-14 1.1-20.7 2.7 7.9-15.3 12.7-32.4 12.7-50.7 0-61.8-50.2-112-112-112-10.5 0-20.9 1.5-31 4.5C283 27 239.4 0 192 0 130.2 0 78.2 43.9 66.9 103.8c-39.4 11.8-66.9 48-66.9 90 0 52 42.3 94.2 94.2 94.2h100.2c-1.6 7.8-2.4 15.8-2.4 24v.4c-38.3 16-64 53.5-64 95.6 0 57.3 46.7 104 104 104h304c57.3 0 104-46.7 104-104 0-54.8-42.6-99.8-96.3-103.7zM94.2 256C59.9 256 32 228.1 32 193.8c0-30.3 21.8-56 51.8-61.1l12-2 1.2-12.1c5-49.4 45.8-86.6 95-86.6 39.5 0 75.5 25 89.6 62.3l6 16 15.5-7c10.6-4.8 21.7-7.3 32.9-7.3 44.1 0 80 35.9 80 80 0 19.9-7.4 38.1-19.7 52.2-22.2-22.5-52-36.2-84.3-36.2-45.8 0-85.3 26.1-105.5 64H94.2zM536 480H232c-39.7 0-72-32.3-72-72 0-32.3 21.9-60.7 53.3-69.2l13.3-3.6-2-17.2c-.3-2-.6-4-.6-6 0-48.5 39.5-88 88-88 32.2 0 61.8 17.9 77.2 46.8l10.6 19.8 15.2-16.5c10.8-11.7 25.4-18.1 41-18.1 30.9 0 56 25.1 56 56 0 1.6-.3 3.1-.8 6.9l-2.5 20 23.5-2.4c1.2-.2 2.5-.4 3.8-.4 39.7 0 72 32.3 72 72S575.7 480 536 480z"/></symbol><symbol viewBox="-30 -30 572 572" id="09d"><path fill="currentColor" d="M118.5 369.2c-2.8-10.2-11.8-17.1-22.3-17.2-11.6.7-19.7 6.8-22.7 17.1-4.7 16.3-11.8 26.9-18.8 37.1-8.6 12.7-17.4 25.8-17.4 45.3 0 33.4 26.3 60.5 58.7 60.5 32.4 0 58.7-27.1 58.7-60.5 0-19.6-8.8-32.6-17.4-45.2-7-10.3-14.1-20.8-18.8-37.1zM96 480c-14.7 0-26.7-12.8-26.7-28.5 0-9.3 4.1-15.8 11.9-27.3 4.6-6.8 9.9-14.7 14.7-24.6 4.8 9.9 10.2 17.8 14.8 24.6 7.8 11.5 11.9 18 11.9 27.3.1 15.7-11.9 28.5-26.6 28.5zm182.5-110.8c-2.8-10.2-11.8-17.1-22.3-17.2h-.2c-10.5 0-19.5 6.8-22.5 17.1-4.7 16.3-11.8 26.9-18.8 37.1-8.6 12.7-17.4 25.8-17.4 45.3 0 33.4 26.3 60.5 58.7 60.5 32.4 0 58.7-27.1 58.7-60.5 0-19.6-8.8-32.6-17.4-45.2-7-10.3-14.1-20.8-18.8-37.1zM256 480c-14.7 0-26.7-12.8-26.7-28.5 0-9.3 4.1-15.8 11.9-27.3 4.6-6.8 9.9-14.7 14.7-24.6 4.8 9.9 10.2 17.8 14.8 24.6 7.8 11.5 11.9 18 11.9 27.3.1 15.7-11.9 28.5-26.6 28.5zm182.5-110.8c-2.8-10.2-11.8-17.1-22.3-17.2-10.4.7-19.7 6.8-22.7 17.1-4.7 16.3-11.8 26.9-18.8 37.1-8.6 12.7-17.4 25.8-17.4 45.3 0 33.4 26.3 60.5 58.7 60.5 32.4 0 58.7-27.1 58.7-60.5 0-19.6-8.8-32.6-17.4-45.2-7-10.3-14.1-20.8-18.8-37.1zM416 480c-14.7 0-26.7-12.8-26.7-28.5 0-9.3 4.1-15.8 11.9-27.3 4.6-6.8 9.9-14.7 14.7-24.6 4.8 9.9 10.2 17.8 14.8 24.6 7.8 11.5 11.9 18 11.9 27.3.1 15.7-11.9 28.5-26.6 28.5zm-.3-367.7C411.8 67.4 373.9 32 328 32c-17.8 0-34.8 5.3-49.2 15.2C256.3 17.7 221.5 0 184 0 117.8 0 64 53.8 64 120v.4c-38.3 16-64 53.5-64 95.6 0 57.3 46.7 104 104 104h304c57.3 0 104-46.7 104-104 0-54.8-42.6-99.8-96.3-103.7zM408 288H104c-39.7 0-72-32.3-72-72 0-32.3 21.9-60.7 53.3-69.2l13.3-3.6-2-17.2c-.3-2-.6-4-.6-6 0-48.5 39.5-88 88-88 32.2 0 61.8 17.9 77.2 46.8l10.6 19.8L287 82.1C297.9 70.4 312.4 64 328 64c30.9 0 56 25.1 56 56 0 1.6-.3 3.1-.8 6.9l-2.5 20 23.5-2.4c1.2-.2 2.5-.4 3.8-.4 39.7 0 72 32.3 72 72S447.7 288 408 288z"/></symbol><symbol viewBox="-30 -30 572 572" id="09n"><path fill="currentColor" d="M118.5 369.2c-2.8-10.2-11.8-17.1-22.3-17.2-11.6.7-19.7 6.8-22.7 17.1-4.7 16.3-11.8 26.9-18.8 37.1-8.6 12.7-17.4 25.8-17.4 45.3 0 33.4 26.3 60.5 58.7 60.5 32.4 0 58.7-27.1 58.7-60.5 0-19.6-8.8-32.6-17.4-45.2-7-10.3-14.1-20.8-18.8-37.1zM96 480c-14.7 0-26.7-12.8-26.7-28.5 0-9.3 4.1-15.8 11.9-27.3 4.6-6.8 9.9-14.7 14.7-24.6 4.8 9.9 10.2 17.8 14.8 24.6 7.8 11.5 11.9 18 11.9 27.3.1 15.7-11.9 28.5-26.6 28.5zm182.5-110.8c-2.8-10.2-11.8-17.1-22.3-17.2h-.2c-10.5 0-19.5 6.8-22.5 17.1-4.7 16.3-11.8 26.9-18.8 37.1-8.6 12.7-17.4 25.8-17.4 45.3 0 33.4 26.3 60.5 58.7 60.5 32.4 0 58.7-27.1 58.7-60.5 0-19.6-8.8-32.6-17.4-45.2-7-10.3-14.1-20.8-18.8-37.1zM256 480c-14.7 0-26.7-12.8-26.7-28.5 0-9.3 4.1-15.8 11.9-27.3 4.6-6.8 9.9-14.7 14.7-24.6 4.8 9.9 10.2 17.8 14.8 24.6 7.8 11.5 11.9 18 11.9 27.3.1 15.7-11.9 28.5-26.6 28.5zm182.5-110.8c-2.8-10.2-11.8-17.1-22.3-17.2-10.4.7-19.7 6.8-22.7 17.1-4.7 16.3-11.8 26.9-18.8 37.1-8.6 12.7-17.4 25.8-17.4 45.3 0 33.4 26.3 60.5 58.7 60.5 32.4 0 58.7-27.1 58.7-60.5 0-19.6-8.8-32.6-17.4-45.2-7-10.3-14.1-20.8-18.8-37.1zM416 480c-14.7 0-26.7-12.8-26.7-28.5 0-9.3 4.1-15.8 11.9-27.3 4.6-6.8 9.9-14.7 14.7-24.6 4.8 9.9 10.2 17.8 14.8 24.6 7.8 11.5 11.9 18 11.9 27.3.1 15.7-11.9 28.5-26.6 28.5zm-.3-367.7C411.8 67.4 373.9 32 328 32c-17.8 0-34.8 5.3-49.2 15.2C256.3 17.7 221.5 0 184 0 117.8 0 64 53.8 64 120v.4c-38.3 16-64 53.5-64 95.6 0 57.3 46.7 104 104 104h304c57.3 0 104-46.7 104-104 0-54.8-42.6-99.8-96.3-103.7zM408 288H104c-39.7 0-72-32.3-72-72 0-32.3 21.9-60.7 53.3-69.2l13.3-3.6-2-17.2c-.3-2-.6-4-.6-6 0-48.5 39.5-88 88-88 32.2 0 61.8 17.9 77.2 46.8l10.6 19.8L287 82.1C297.9 70.4 312.4 64 328 64c30.9 0 56 25.1 56 56 0 1.6-.3 3.1-.8 6.9l-2.5 20 23.5-2.4c1.2-.2 2.5-.4 3.8-.4 39.7 0 72 32.3 72 72S447.7 288 408 288z"/></symbol><symbol viewBox="0 0 640 512" id="10d"><path fill="currentColor" d="M298.2 418.075c-7.6-4.3-17.4-1.8-21.8 6l-36.6 64c-4.4 7.7-1.7 17.4 6 21.8 2.5 1.4 5.2 2.1 7.9 2.1 5.5 0 10.9-2.9 13.9-8.1l36.6-64c4.4-7.7 1.7-17.4-6-21.8zM192 139.975c26.4 0 48 20 51.1 45.6 4.8-3.6 9.8-6.9 15.1-9.9 1.5-8.4 3.9-16.5 6.8-24.3-14.3-25.7-41.5-43.4-73-43.4-46.2 0-83.7 37.6-83.7 83.8 0 46.2 37.5 83.8 83.7 83.8.3 0 .6-.1.9-.1 1.1-11.4 3.7-22.4 7.7-32.8-2.8.5-5.6.9-8.5.9-28.5 0-51.7-23.2-51.7-51.7-.1-28.6 23.1-51.9 51.6-51.9zm-31.7 151.7c-3.6-5.3-9.9-8.1-16.4-6.8l-56 11.1 11.1-56c1.2-6.4-1.4-12.8-6.8-16.4l-47.4-31.8 47.4-31.8c5.4-3.6 8-10.1 6.8-16.4l-11.1-56 56 11.1c6.5 1.3 12.8-1.4 16.4-6.8l31.7-47.5 31.8 47.5c3.6 5.3 10 8.1 16.4 6.8l79.4-15.7c8.7-1.7 14.3-10.1 12.6-18.8-1.7-8.7-10.3-14.5-18.8-12.6l-68.9 13.6-39.2-58.5c-5.9-8.9-20.6-8.9-26.6 0l-39.1 58.5-69-13.7c-5.3-1.1-10.7.6-14.4 4.4-3.8 3.8-5.4 9.2-4.4 14.5l13.7 69-58.4 39.1c-4.4 3-7.1 7.9-7.1 13.3 0 5.3 2.7 10.3 7.1 13.3l58.4 39.1-13.7 69c-1 5.3.6 10.7 4.4 14.5 3.8 3.8 9 5.5 14.4 4.4l68.9-13.7 39.1 58.5c3.1 4.6 8.2 7.1 13.3 7.1 3.1 0 6.2-.9 8.9-2.7 7.3-4.9 9.3-14.9 4.4-22.2l-44.9-67.4zm329.9 126.4c-7.6-4.3-17.4-1.8-21.8 6l-36.6 64c-4.4 7.7-1.7 17.4 6 21.8 2.5 1.4 5.2 2.1 7.9 2.1 5.5 0 10.9-2.9 13.9-8.1l36.6-64c4.4-7.7 1.7-17.4-6-21.8zm85.1-220.8c-5.3-39.1-38.8-69.3-79.3-69.3-8.6 0-17 1.4-25.2 4.3-19.7-22.9-48.2-36.3-78.8-36.3-56.5 0-102.7 45.3-104 101.6-37.8 13.3-64 49.3-64 90.4 0 52.9 43.1 96 96 96h224c52.9 0 96-43.1 96-96 0-41.3-26.6-77.6-64.7-90.7zm-31.3 154.7H320c-35.3 0-64-28.7-64-64 0-30.6 21.8-57 52-62.8l14.5-2.8-2-18c-.2-1.5-.4-2.9-.4-4.4 0-39.7 32.3-72 72-72 24.3 0 46.8 12.2 60.2 32.8l8.1 12.4 13-7.1c32.7-17.8 70.7 8.2 70.8 40.4l-.2 16.2 12.8 2.6c29.8 6 51.3 32.3 51.3 62.7-.1 35.3-28.8 64-64.1 64zm42.2 66.1c-7.6-4.3-17.4-1.8-21.8 6l-36.6 64c-4.4 7.7-1.7 17.4 6 21.8 2.5 1.4 5.2 2.1 7.9 2.1 5.5 0 10.9-2.9 13.9-8.1l36.6-64c4.4-7.7 1.7-17.4-6-21.8zm-192 0c-7.6-4.3-17.4-1.8-21.8 6l-36.6 64c-4.4 7.7-1.7 17.4 6 21.8 2.5 1.4 5.2 2.1 7.9 2.1 5.5 0 10.9-2.9 13.9-8.1l36.6-64c4.4-7.7 1.7-17.4-6-21.8z"/></symbol><symbol viewBox="0 0 576 512" id="10n"><path fill="currentColor" d="M573.9 237.5c-3.6-7.7-11.5-12.6-19.9-12.6h-1.4l-2.8.4c-6.3 1.2-12.6 1.8-18.9 1.8-54.4 0-98.7-44-98.7-98.2 0-35.2 19.2-67.9 50.1-85.3 8.2-4.6 12.4-13.6 10.9-22.8-1.6-9.3-8.5-16.3-17.8-18C465.7.9 455.8 0 446 0c-67.1 0-123.6 41.4-147.7 99.5 10.2 2.5 20 6.3 29 11.4 19.1-45.6 63.9-78 116.5-78.9-27.3 24.4-43.5 59.6-43.5 96.8 0 70.7 57 128.5 127.6 130.1-22.3 18.2-50.3 28.4-79.8 28.8v.2c0 11-1.5 21.7-4.1 31.9.7 0 1.4.1 2.1.1 48.7 0 94.3-21.6 125-59.2 5.3-6.5 6.4-15.5 2.8-23.2zm-222.6-40.2C346 158.2 312.5 128 272 128c-8.6 0-17 1.4-25.2 4.3-19.7-23-48.2-36.3-78.8-36.3-56.5 0-102.7 45.3-104 101.6C26.2 210.9 0 246.9 0 288c0 52.9 43.1 96 96 96h224c52.9 0 96-43.1 96-96 0-1.3-.3-2.6-.3-4-1.7-39.6-27.5-74-64.4-86.7zM320 352H96c-35.3 0-64-28.7-64-64 0-30.6 21.8-57 52-62.8l14.5-2.8-2-18c-.2-1.5-.4-2.9-.4-4.4 0-39.7 32.3-72 72-72 24.3 0 46.8 12.2 60.2 32.8l8.1 12.4 13-7.1c32.7-17.8 70.7 8.2 70.8 40.4l-.2 16.2 12.8 2.6c29.8 6 51.3 32.3 51.3 62.7-.1 35.3-28.8 64-64.1 64zm-149.8 66.1c-7.6-4.3-17.4-1.8-21.8 6l-36.6 64c-4.4 7.7-1.7 17.4 6 21.8 2.5 1.4 5.2 2.1 7.9 2.1 5.5 0 10.9-2.9 13.9-8.1l36.6-64c4.4-7.7 1.7-17.4-6-21.8zm-96 0c-7.6-4.3-17.4-1.8-21.8 6l-36.6 64c-4.4 7.7-1.7 17.4 6 21.8 2.5 1.4 5.2 2.1 7.9 2.1 5.5 0 10.9-2.9 13.9-8.1l36.6-64c4.4-7.7 1.7-17.4-6-21.8zm192 0c-7.6-4.3-17.4-1.8-21.8 6l-36.6 64c-4.4 7.7-1.7 17.4 6 21.8 2.5 1.4 5.2 2.1 7.9 2.1 5.5 0 10.9-2.9 13.9-8.1l36.6-64c4.4-7.7 1.7-17.4-6-21.8zm96 0c-7.6-4.3-17.4-1.8-21.8 6l-36.6 64c-4.4 7.7-1.7 17.4 6 21.8 2.5 1.4 5.2 2.1 7.9 2.1 5.5 0 10.9-2.9 13.9-8.1l36.6-64c4.4-7.7 1.7-17.4-6-21.8z"/></symbol><symbol viewBox="-40 -40 592 593" id="11d"><path fill="currentColor" d="M368 256h-73.8l25-74.9c1.6-4.9.8-10.2-2.2-14.4-3-4.2-7.8-6.6-13-6.6H192c-7.7 0-14.3 5.5-15.8 13.1l-32 176c-.8 4.7.4 9.5 3.5 13.1 3.1 3.6 7.5 5.8 12.3 5.8h80v128c0 7.4 5.1 13.9 12.3 15.6 1.2.3 2.5.4 3.7.4 6 0 11.6-3.3 14.3-8.8l112-224c2.5-5 2.2-10.8-.7-15.6-2.9-4.8-8.1-7.7-13.6-7.7zm-96 172.2V352c0-8.8-7.2-16-16-16h-76.8l26.2-144h76.5l-25 74.9c-1.6 4.9-.8 10.2 2.2 14.4 3 4.2 7.8 6.6 13 6.6h70.1L272 428.2zm143.7-315.9C411.8 67.4 373.9 32 328 32c-17.8 0-34.8 5.3-49.2 15.2C256.3 17.7 221.5 0 184 0 117.8 0 64 53.8 64 120v.4c-38.3 16-64 53.5-64 95.6 0 57.3 46.7 104 104 104h13l5.8-32H104c-39.7 0-72-32.3-72-72 0-32.3 21.9-60.7 53.3-69.2l13.3-3.6-2-17.2c-.3-2-.6-4-.6-6 0-48.5 39.5-88 88-88 32.2 0 61.8 17.9 77.2 46.8l10.6 19.8L287 82.1C297.9 70.4 312.4 64 328 64c30.9 0 56 25.1 56 56 0 1.6-.3 3.1-.8 6.9l-2.5 20 23.5-2.4c1.2-.2 2.5-.4 3.8-.4 39.7 0 72 32.3 72 72 0 38-29.7 68.9-67 71.5-.7 2-1.1 4-2.1 6L397.7 320H408c57.3 0 104-46.7 104-104 0-54.8-42.6-99.8-96.3-103.7z"/></symbol><symbol viewBox="-40 -40 592 593" id="11n"><path fill="currentColor" d="M368 256h-73.8l25-74.9c1.6-4.9.8-10.2-2.2-14.4-3-4.2-7.8-6.6-13-6.6H192c-7.7 0-14.3 5.5-15.8 13.1l-32 176c-.8 4.7.4 9.5 3.5 13.1 3.1 3.6 7.5 5.8 12.3 5.8h80v128c0 7.4 5.1 13.9 12.3 15.6 1.2.3 2.5.4 3.7.4 6 0 11.6-3.3 14.3-8.8l112-224c2.5-5 2.2-10.8-.7-15.6-2.9-4.8-8.1-7.7-13.6-7.7zm-96 172.2V352c0-8.8-7.2-16-16-16h-76.8l26.2-144h76.5l-25 74.9c-1.6 4.9-.8 10.2 2.2 14.4 3 4.2 7.8 6.6 13 6.6h70.1L272 428.2zm143.7-315.9C411.8 67.4 373.9 32 328 32c-17.8 0-34.8 5.3-49.2 15.2C256.3 17.7 221.5 0 184 0 117.8 0 64 53.8 64 120v.4c-38.3 16-64 53.5-64 95.6 0 57.3 46.7 104 104 104h13l5.8-32H104c-39.7 0-72-32.3-72-72 0-32.3 21.9-60.7 53.3-69.2l13.3-3.6-2-17.2c-.3-2-.6-4-.6-6 0-48.5 39.5-88 88-88 32.2 0 61.8 17.9 77.2 46.8l10.6 19.8L287 82.1C297.9 70.4 312.4 64 328 64c30.9 0 56 25.1 56 56 0 1.6-.3 3.1-.8 6.9l-2.5 20 23.5-2.4c1.2-.2 2.5-.4 3.8-.4 39.7 0 72 32.3 72 72 0 38-29.7 68.9-67 71.5-.7 2-1.1 4-2.1 6L397.7 320H408c57.3 0 104-46.7 104-104 0-54.8-42.6-99.8-96.3-103.7z"/></symbol><symbol viewBox="-30 -30 700 572" id="13d"><path fill="currentColor" d="M527.9 120c0 4.4 3.6 8 8 8h16c4.4 0 8-3.6 8-8V91.6l28 16.1c3.8 2.2 8.7.9 10.9-2.9l8-13.9c2.2-3.8.9-8.7-2.9-10.9L576 64l27.9-16c3.8-2.2 5.1-7.1 2.9-10.9l-8-13.9c-2.2-3.8-7.1-5.1-10.9-2.9l-28 16.1V8c0-4.4-3.6-8-8-8h-16c-4.4 0-8 3.6-8 8v28.4l-28-16.1c-3.8-2.2-8.7-.9-10.9 2.9l-8 13.9c-2.2 3.8-.9 8.7 2.9 10.9l27.9 16-27.9 16c-3.8 2.2-5.1 7.1-2.9 10.9l8 13.9c2.2 3.8 7.1 5.1 10.9 2.9l28-16.1V120zm80.2 136l27.9-16c3.8-2.2 5.1-7.1 2.9-10.9l-8-13.9c-2.2-3.8-7.1-5.1-10.9-2.9l-28 16.1V200c0-4.4-3.6-8-8-8h-16c-4.4 0-8 3.6-8 8v28.4l-28-16.1c-3.8-2.2-8.7-.9-10.9 2.9l-8 13.9c-2.2 3.8-.9 8.7 2.9 10.9l27.9 16-27.9 16c-3.8 2.2-5.1 7.1-2.9 10.9l8 13.9c2.2 3.8 7.1 5.1 10.9 2.9l28-16.1V312c0 4.4 3.6 8 8 8h16c4.4 0 8-3.6 8-8v-28.4l28 16.1c3.8 2.2 8.7.9 10.9-2.9l8-13.9c2.2-3.8.9-8.7-2.9-10.9l-27.9-16zm-220.2 77.5l52.7-14.3c4.2-1.1 6.7-5.5 5.6-9.8l-4.1-15.5c-1.1-4.3-5.5-6.8-9.7-5.7l-83.1 22.6-93.8-54.8 93.7-54.8 83.1 22.6c4.2 1.1 8.6-1.4 9.7-5.7l4.1-15.5c1.1-4.3-1.4-8.7-5.6-9.8l-52.7-14.3 55.9-32.7c3.8-2.2 5.1-7.1 2.9-10.9l-7.9-13.9c-2.2-3.8-7-5.1-10.8-2.9L372 150.8l14.1-53.3c1.1-4.3-1.4-8.7-5.6-9.8l-15.3-4.1c-4.2-1.1-8.6 1.4-9.7 5.7l-22.3 84.2-93.7 54.8V118.6l61-61.6c3.1-3.1 3.1-8.2 0-11.3l-11.2-11.3c-3.1-3.1-8.1-3.1-11.2 0l-38.6 39V8c0-4.4-3.5-8-7.9-8h-15.8c-4.4 0-7.9 3.6-7.9 8v65.4l-38.6-39c-3.1-3.1-8.1-3.1-11.2 0l-11.2 11.3c-3.1 3.1-3.1 8.2 0 11.3l60.9 61.7v109.7l-93.7-54.8-22-84.4c-1.1-4.3-5.5-6.8-9.7-5.7l-15.3 4.1c-4.2 1.1-6.7 5.5-5.6 9.8l14.1 53.3L19.8 118c-3.8-2.2-8.6-.9-10.8 2.9l-7.9 13.9c-2.2 3.8-.9 8.7 2.9 10.9l55.9 32.7-52.6 14.4c-4.2 1.1-6.7 5.5-5.6 9.8l4.1 15.5c1.1 4.3 5.5 6.8 9.7 5.7l83.1-22.6 93.7 54.8-93.7 54.8-83.1-22.6c-4.2-1.1-8.6 1.4-9.7 5.7l-4.1 15.5c-1.1 4.3 1.4 8.7 5.6 9.8L60 333.5 4.1 366.1C.3 368.3-1 373.2 1.2 377l7.9 13.9c2.2 3.8 7 5.1 10.8 2.9l55.9-32.7-14.1 53.3c-1.1 4.3 1.4 8.7 5.6 9.8l15.3 4.1c4.2 1.1 8.6-1.4 9.7-5.7l22.3-84.2 93.7-54.8v109.7l-61 61.7c-3.1 3.1-3.1 8.2 0 11.3l11.2 11.3c3.1 3.1 8.1 3.1 11.2 0l38.6-39V504c0 4.4 3.5 8 7.9 8H232c4.4 0 7.9-3.6 7.9-8v-65.4l38.6 39c3.1 3.1 8.1 3.1 11.2 0l11.2-11.3c3.1-3.1 3.1-8.2 0-11.3L240 393.3V283.7l93.7 54.8 22.3 84.2c1.1 4.3 5.5 6.8 9.7 5.7l15.3-4.1c4.2-1.1 6.7-5.5 5.6-9.8l-14.1-53.3 55.9 32.7c3.8 2.2 8.6.9 10.8-2.9l7.9-13.9c2.2-3.8.9-8.7-2.9-10.9l-56.3-32.7z"/></symbol><symbol viewBox="-30 -30 700 572" id="13n"><path fill="currentColor" d="M527.9 120c0 4.4 3.6 8 8 8h16c4.4 0 8-3.6 8-8V91.6l28 16.1c3.8 2.2 8.7.9 10.9-2.9l8-13.9c2.2-3.8.9-8.7-2.9-10.9L576 64l27.9-16c3.8-2.2 5.1-7.1 2.9-10.9l-8-13.9c-2.2-3.8-7.1-5.1-10.9-2.9l-28 16.1V8c0-4.4-3.6-8-8-8h-16c-4.4 0-8 3.6-8 8v28.4l-28-16.1c-3.8-2.2-8.7-.9-10.9 2.9l-8 13.9c-2.2 3.8-.9 8.7 2.9 10.9l27.9 16-27.9 16c-3.8 2.2-5.1 7.1-2.9 10.9l8 13.9c2.2 3.8 7.1 5.1 10.9 2.9l28-16.1V120zm80.2 136l27.9-16c3.8-2.2 5.1-7.1 2.9-10.9l-8-13.9c-2.2-3.8-7.1-5.1-10.9-2.9l-28 16.1V200c0-4.4-3.6-8-8-8h-16c-4.4 0-8 3.6-8 8v28.4l-28-16.1c-3.8-2.2-8.7-.9-10.9 2.9l-8 13.9c-2.2 3.8-.9 8.7 2.9 10.9l27.9 16-27.9 16c-3.8 2.2-5.1 7.1-2.9 10.9l8 13.9c2.2 3.8 7.1 5.1 10.9 2.9l28-16.1V312c0 4.4 3.6 8 8 8h16c4.4 0 8-3.6 8-8v-28.4l28 16.1c3.8 2.2 8.7.9 10.9-2.9l8-13.9c2.2-3.8.9-8.7-2.9-10.9l-27.9-16zm-220.2 77.5l52.7-14.3c4.2-1.1 6.7-5.5 5.6-9.8l-4.1-15.5c-1.1-4.3-5.5-6.8-9.7-5.7l-83.1 22.6-93.8-54.8 93.7-54.8 83.1 22.6c4.2 1.1 8.6-1.4 9.7-5.7l4.1-15.5c1.1-4.3-1.4-8.7-5.6-9.8l-52.7-14.3 55.9-32.7c3.8-2.2 5.1-7.1 2.9-10.9l-7.9-13.9c-2.2-3.8-7-5.1-10.8-2.9L372 150.8l14.1-53.3c1.1-4.3-1.4-8.7-5.6-9.8l-15.3-4.1c-4.2-1.1-8.6 1.4-9.7 5.7l-22.3 84.2-93.7 54.8V118.6l61-61.6c3.1-3.1 3.1-8.2 0-11.3l-11.2-11.3c-3.1-3.1-8.1-3.1-11.2 0l-38.6 39V8c0-4.4-3.5-8-7.9-8h-15.8c-4.4 0-7.9 3.6-7.9 8v65.4l-38.6-39c-3.1-3.1-8.1-3.1-11.2 0l-11.2 11.3c-3.1 3.1-3.1 8.2 0 11.3l60.9 61.7v109.7l-93.7-54.8-22-84.4c-1.1-4.3-5.5-6.8-9.7-5.7l-15.3 4.1c-4.2 1.1-6.7 5.5-5.6 9.8l14.1 53.3L19.8 118c-3.8-2.2-8.6-.9-10.8 2.9l-7.9 13.9c-2.2 3.8-.9 8.7 2.9 10.9l55.9 32.7-52.6 14.4c-4.2 1.1-6.7 5.5-5.6 9.8l4.1 15.5c1.1 4.3 5.5 6.8 9.7 5.7l83.1-22.6 93.7 54.8-93.7 54.8-83.1-22.6c-4.2-1.1-8.6 1.4-9.7 5.7l-4.1 15.5c-1.1 4.3 1.4 8.7 5.6 9.8L60 333.5 4.1 366.1C.3 368.3-1 373.2 1.2 377l7.9 13.9c2.2 3.8 7 5.1 10.8 2.9l55.9-32.7-14.1 53.3c-1.1 4.3 1.4 8.7 5.6 9.8l15.3 4.1c4.2 1.1 8.6-1.4 9.7-5.7l22.3-84.2 93.7-54.8v109.7l-61 61.7c-3.1 3.1-3.1 8.2 0 11.3l11.2 11.3c3.1 3.1 8.1 3.1 11.2 0l38.6-39V504c0 4.4 3.5 8 7.9 8H232c4.4 0 7.9-3.6 7.9-8v-65.4l38.6 39c3.1 3.1 8.1 3.1 11.2 0l11.2-11.3c3.1-3.1 3.1-8.2 0-11.3L240 393.3V283.7l93.7 54.8 22.3 84.2c1.1 4.3 5.5 6.8 9.7 5.7l15.3-4.1c4.2-1.1 6.7-5.5 5.6-9.8l-14.1-53.3 55.9 32.7c3.8 2.2 8.6.9 10.8-2.9l7.9-13.9c2.2-3.8.9-8.7-2.9-10.9l-56.3-32.7z"/></symbol><symbol viewBox="0 0 217.43 217.43" id="50d"><path fill="currentColor" d="M144.797 47.095a7.5 7.5 0 00-7.5-7.5H7.5a7.5 7.5 0 000 15h129.797a7.5 7.5 0 007.5-7.5zM209.93 70.405H58.632a7.5 7.5 0 000 15H209.93a7.5 7.5 0 000-15zM174.53 116.214a7.5 7.5 0 000-15H22.446a7.5 7.5 0 000 15H174.53zM199.441 132.024H47.619a7.5 7.5 0 000 15h151.822a7.5 7.5 0 000-15zM125.759 162.835H25.068a7.5 7.5 0 000 15h100.69a7.5 7.5 0 00.001-15z"/></symbol><symbol viewBox="0 0 217.43 217.43" id="50n"><path fill="currentColor" d="M144.797 47.095a7.5 7.5 0 00-7.5-7.5H7.5a7.5 7.5 0 000 15h129.797a7.5 7.5 0 007.5-7.5zM209.93 70.405H58.632a7.5 7.5 0 000 15H209.93a7.5 7.5 0 000-15zM174.53 116.214a7.5 7.5 0 000-15H22.446a7.5 7.5 0 000 15H174.53zM199.441 132.024H47.619a7.5 7.5 0 000 15h151.822a7.5 7.5 0 000-15zM125.759 162.835H25.068a7.5 7.5 0 000 15h100.69a7.5 7.5 0 00.001-15z"/></symbol></svg>
